<?xml version="1.0" encoding="UTF-8"?>
<svg id="Layer_1" xmlns="http://www.w3.org/2000/svg" version="1.1" viewBox="0 0 468.2 147.89">
  <!-- Generator: Adobe Illustrator 29.3.1, SVG Export Plug-In . SVG Version: 2.1.0 Build 151)  -->
  <defs>
    <style>
      .st0 {
        fill: #98bb3e;
      }

      .st1 {
        fill: #f16a23;
      }

      .st2 {
        fill: #9434d1;
      }

      .st3 {
        fill: #eb228c;
      }
    </style>
  </defs>
  <g>
    <path class="st1" d="M69.9,98.58c-.18-1.62-.24-3.32-.32-4.95-.11-2.24.08-4.49.19-6.71.03-.7.62-3.58.11-4.2-.86-1.07-3.23.6-4.03,1.01-2.51,1.3-4.88,3.24-7.83,3.46-1.96.15-5.93.8-7.24-1.2-1.05-1.6-.14-3.95.97-5.23,1.21-1.41,3.18-2.09,4.81-2.84.58-.26,1.13-.62,1.74-.82,1.16-.39,3.95.3,4.75-.59.46-.52.02-1.56-.54-2.41-1.27-.31-2.48-.74-3.82-.6-1.45.15-2.42,1.16-3.73,1.65-1.2.44-2.44.49-3.71.43-1.88-.09-3.16.64-4.88,1.11-1.59.43-3.25.61-4.81,1.21-8.38,3.18-16.69,8.27-17.95,17.69-.53,3.96-2.81,7.1-2.61,11.18.17,3.55-1.19,6.3-.47,9.79.47,2.31.88,4.78,3.71,5.03,1.29.11,3.11-.07,4.29.41.99.4,1.79.89,2.91,1.13,1.86.4,3.3-.46,5.08-.69,1.89-.25,4.01,0,5.84.52,3.79,1.07,8.91,1.15,12.34-1.01,1.4-.89,2.54-1.35,4.22-1.79,3.58-.93,8.57-3.93,9.49-7.67.33-1.33.51-2.67,1.14-3.93.78-1.54,1.34-2.9,1.52-4.62.14-1.32.08-2.56.87-3.68.01-.02.03-.03.04-.05-1.04-.05-1.97-.52-2.09-1.62Z"/>
    <path class="st2" d="M123.61,24.27c-.55-2.78-2.65-4.46-5.46-4.58-3.75-.17-7.63.19-11.32.35-2.4.1-4.97-.04-7.33.12-2.12.14-4.33.95-6.45,1.25-1.81.25-3.94.95-5.55,1.88-4.29,2.49-7.98,6.97-9.52,11.7-.64,1.95-2.12,2.01-2.53,3.98-.27,1.28-.17,3.27-.78,4.4-.19.34-.42.7-.56,1.03-.69,1.57-.19,3.63.12,5.52.08-.01.15-.02.23-.04,1.92-.3,2.89.05,2.92,2.11.02,1.57-.11,3.34-.5,4.88-.47,1.84-1.55,11.44,1.49,10.83,1.11-.22.87-2.16,1.38-2.89.8-1.15,2.55-2.17,3.7-2.87,2.35-1.44,5.84-3.15,8.62-1.87,4.48,2.07.09,6.02-2.46,7.49-1.59.91-3.67,1.59-5.49,1.87-.91.14-2.03-.04-2.73.7-.61.65-.6,1.9-.07,2.63.08.11.17.2.26.28.09,0,.19,0,.28-.02.86-.13,1.56-.21,2.37-.39,1.91-.43,3.79.18,5.74-.51.88-.31,2.19-1.18,2.95-1.67,1.76-1.13,3.44-3.08,5.68-3.14,1.31-.04,2.72.15,4.06,0,2.8-.31,4.28-3.05,6.88-3.85,1.91-.59,4.04-1.57,5.66-2.76,1.08-.8,1.96-2.05,2.53-3.23.59-1.23.97-2.56,1.53-3.79.5-1.12,1.36-2.01,1.92-3.09.71-1.38.66-2.88,1.03-4.33.44-1.74,1.3-3.43,1.6-5.13.41-2.32.36-4.71.37-7.14.01-3.27.09-6.46-.55-9.69Z"/>
    <path class="st3" d="M56.89,68.65c-1.36-1.53-1.94-3.5-2.21-5.48-.13-.95-.59-2.84,0-3.72.69-1.04,2.76-.72,3.79-.58,2.94.4,5.42,2.78,7.81,4.33.67.43,1.3.85,1.96,1.28.29.19.54.41.77.53.4-.77.6-1.64.66-2.57.06-.24.11-.49.13-.74,0-.06,0-.12,0-.18-.18-.91-.39-1.78-.42-2.34-.06-.94.1-1.84.1-2.76,0-1.82-.38-3.17.7-4.64.05-.06.1-.12.15-.17.15-2.65,0-5.22-1.24-7.59-.78-1.5-1.82-3.12-2.67-4.76-1.26-2.44-2.58-4.85-3.95-7.22-.55-.95-1.23-1.81-2.13-2.41-1-.67-2.1-.97-3.13-1.56-1.29-.74-1.52-2.42-3.13-2.8-1.07-.26-2.19-.25-3.25-.6-1.17-.39-2.88-.42-3.87-1.16-1.31-.96-3.18-.72-4.62-1.11-1.04-.29-1.82-1.1-2.83-1.42-1.12-.35-2.6.35-3.62-.07-1.54-.64-1.94-1.42-3.54-1.45-1.65-.03-3.31-.84-4.97-.65-1.14.13-2.38.16-3.16,1.28-.65.93-1.82.87-2,2.16-.17,1.27.21,2.46.32,3.65.13,1.44.08,2.97-.14,4.31-.27,1.7-1.2,3.29-.97,4.95.28,2.02.66,4.41.3,6.48-.32,1.85-.38,3.48,0,5.32.26,1.3.07,2.74.84,3.89.75,1.12,1.39,2.24,1.6,3.63.16,1.07.46,2.19,1.33,2.83,1.59,1.17,2.82,2.81,3.9,4.63.48.81,1.61.57,2.17,1.34.69.94,1.88,1.8,2.85,2.33,2.58,1.41,5.07,3.25,7.89,4.18,1.19.39,2.45.42,3.71.58,1.36.18,3.01,1.34,4.33,1.69,1.34.36,2.4-.22,3.69-.12,2.26.18,4.6,1.13,6.82,1.22.32.01.61-.02.9-.08-1.39-1.69-3.43-2.82-4.86-4.43Z"/>
    <path class="st0" d="M90.77,79.66c1.1,1.22,2.53,2.36,3.3,3.8,2.93,5.51-6.87,4.21-9.51,3.41-2.36-.72-4.24-2.53-6.13-4.03-1-.8-1.68-1.29-1.79.19-.08,1.15.38,2.61.6,3.74.47,2.42.14,5.04.03,7.49-.03.74.09,2.15-.21,2.83-.38.86-1.86,2.04-2.68,2.53-.4.24-.9.42-1.43.51-.05.32-.05.63.08.94.37.85,1.35.82,1.46,1.96.05.54-.14,1.02-.01,1.59.22.97.34,2.32.72,3.24.4.96,1.24,1.81,1.73,2.74.52.99,1.01,2.04,1.83,2.86,1.17,1.16,1.87,2.22,2.62,3.69.37.72,1.28,1.56,1.92,2.08.58.46,1.24.76,1.82,1.25,1.44,1.24,3.41,1.64,5.17,2.49,1.27.62,3.24,1.03,4.71.97,1.77-.08,3.25-1.06,4.88-1.51,2.44-.68,4.12.81,6.44.78,1.5-.02,3.06-.57,4.54-.81,2.86-.47,5.76.46,8.1-1.54.38-.33.62-.65.95-.97.15-.14.19-.42.39-.59.25-.22.72-.12,1-.35,2.23-1.9-.21-7.19-.44-9.49-.13-1.28.32-2.75-.14-3.99-.4-1.07-1.31-1.95-1.83-2.97-1.08-2.1-.41-3.95-.52-6.23-.16-3.43-2-5.43-4.23-7.93-.98-1.1-1.56-2.32-2.12-3.63-1.39-3.29-5.47-4.01-8.54-5.4-.54-.24-1.01-.75-1.51-1.05-.98-.59-2.06-.67-3.4-1.16-.95-.35-2.08-.5-3.14-.73-.88-.18-1.73-.66-2.57-.78-.31-.04-.59-.06-.89-.14-.54-.14-1.01-.19-1.59-.19-.56,0-1.11.03-1.67.05-.64.03-.76-.17-1.28-.42-.71-.34-1.3-.15-1.92-.06.57.41,1.14.85,1.69,1.24,1.4.99,2.42,2.32,3.56,3.6Z"/>
  </g>
  <g>
    <path d="M217.03,99.65c-.05-.05-.11-.08-.12-.12.22-.12.46-.26.52-.85v-.14s-.07-.11-.07-.11c-.5-.73-1.48-1.34-2.32-1.43l-.18-.03c-.24-.04-.42-.09-.58-.13-.36-.09-.64-.16-1.19-.14-.15,0-.3.01-.45.02-.24.01-.4.06-.52.1-.15.05-.24.07-.45,0,.04-.86.05-1.74,0-2.62-.03-.6-.11-1.79-.19-2.39-.05-.37-.1-.76-.12-1.13-.02-.33-.03-.68-.04-1.08,0-.4,0-.81,0-1.22v-.48c0-.38-.02-.75-.04-1.12-.03-.49-.06-.95-.02-1.4.04-.42.14-.84.24-1.24.1-.4.2-.8.24-1.22.05-.48.03-.96.01-1.43-.02-.37-.03-.75,0-1.11.02-.29.05-.57.08-.85.06-.54.12-1.1.1-1.68-.02-.5-.05-1.01-.08-1.51v-.2c-.03-.36-.05-.73-.07-1.1-.02-.47-.07-.94-.12-1.41-.05-.43-.1-.91-.12-1.38-.02-.45.01-.91.05-1.39.03-.43.07-.93.05-1.42-.02-.48-.01-.97,0-1.46.01-.41.02-.88,0-1.34-.01-.37-.03-.74-.06-1.12-.03-.55-.06-1.11-.07-1.67,0-.41-.03-.83-.06-1.25-.03-.48-.07-1.02-.06-1.54,0-.44-.03-.89-.07-1.33-.04-.46-.08-.98-.05-1.47.02-.35.08-.7.14-1.07.02-.14.04-.29.07-.43.05-.38.09-.69.11-.97.02-.33.07-.67.11-1.01l.03-.24c.05-.41.1-.84.1-1.28,0-.5-.05-1.01-.1-1.53v-.11c-.05-.33-.09-.67-.11-1-.02-.28-.03-.55-.04-.86,0-.19-.06-.36-.11-.53-.07-.23-.13-.45-.07-.69.05-.2.17-.25.5-.33.39-.09.81-.06,1.21-.03.41.03.83.06,1.24-.03,1.96-.41,2.93-1.44,2.73-2.91-.14-1.07-.69-1.75-1.69-2.08-.79-.26-1.74-.27-2.65-.28-.29,0-.57,0-.84-.01-1-.04-2.06-.08-3.11-.18-.71-.06-1.42,0-2.1.06-.66.06-1.34.12-2.01.06-.59-.05-1.46-.09-2.1.18-1.25.51-1.9,1.25-1.86,2.15.02.54.07,1.02.39,1.53.16.25.37.47.66.7.16.12.32.19.47.25.1.04.19.08.28.13.33.2.24.65.1.99-.23.59-.56,1.18-.87,1.76-.16.29-.32.59-.47.88-.09.17-.17.35-.25.54-.06.13-.12.27-.18.4-.16.33-.37.64-.62.99l-.04.05c-.25.35-.51.72-.71,1.12-.18.36-.28.76-.37,1.15l-.02.09c-.1.41-.21.8-.4,1.15-.18.33-.46.63-.76.95-.21.22-.28.54-.35.84-.05.2-.09.39-.17.54-.22.41-.36.84-.51,1.27-.12.37-.25.75-.43,1.1-.21.41-.39.83-.55,1.21-.15.36-.31.74-.49,1.09-.07.13-.14.27-.22.4-.13.22-.26.46-.35.7-.05.14-.11.28-.18.41-.04.09-.08.18-.12.27-.13.3-.21.64-.28.93l-.02.07c-.08.31-.26.56-.45.82-.15.21-.31.43-.43.69-.22.51-.51,1-.8,1.48-.3.5-.61,1.02-.84,1.57-.21.49-.41,1-.6,1.49-.32.83-.65,1.68-1.05,2.49-.79,1.61-1.28,3.21-1.81,4.91l-.13.43c-.18.57-.49,1.15-.79,1.71-.1.18-.19.35-.28.53-.27.54-.5,1.12-.72,1.68-.1.26-.2.52-.31.77-.26.62-.58,1.22-.89,1.78-.11.19-.21.39-.31.58-.13.26-.24.52-.34.73l-.1.24c-.16.38-.33.78-.52,1.13-.15-.19-.44-.69-.85-1.58-.24-.51-.59-1.28-.98-2.03-.4-.79-.84-1.64-1.33-2.43-.42-.67-.82-1.45-1.24-2.39-.13-.3-.22-.68-.32-1.11-.08-.35-.15-.71-.27-1.08-.12-.38-.32-.73-.52-1.07-.19-.33-.38-.66-.49-1.01-.1-.3-.18-.6-.26-.91-.12-.46-.24-.9-.4-1.31l-.05-.12c-.31-.78-.61-1.51-1.02-2.01-.05-.06-.15-.3-.24-.5-.21-.5-.36-.83-.54-.94-.21-.13-.33-.48-.46-.82-.07-.2-.15-.41-.24-.59-.16-.3-.3-.41-.41-.5-.12-.09-.2-.16-.31-.56-.27-1-.47-1.47-.79-2.08-.09-.18-.18-.36-.29-.58-.11-.21-.15-.5-.2-.81-.07-.42-.14-.84-.36-1.2-.24-.38-.53-.73-.82-1.08-.27-.33-.54-.67-.77-1.02-.26-.4-.48-.82-.72-1.29l-.04-.08c-.16-.31-.31-.61-.47-.9-.14-.24-.29-.48-.43-.71l-.06-.1c-.32-.51-.59-.97-.73-1.39-.09-.27-.19-.55-.29-.84l-.1-.29c-.17-.5-.35-1.02-.51-1.55-.07-.25-.29-.43-.51-.6-.21-.17-.41-.32-.43-.52-.04-.44-.11-.99-.24-1.44-.52-1.83-1.07-3.37-1.72-4.83-.12-.28-.24-.56-.36-.85-.5-1.22-1.02-2.49-2.25-3.32-.86-.58-1.96-.64-2.94-.69h-.28c-.29-.03-.58-.05-.87-.07-.36-.03-.73-.05-1.09-.07-.29-.01-.59,0-.87.03-.36.03-.71.05-1.08,0-.58-.07-1.38-.16-1.99-.06-.17.03-.34.04-.56.07-.47.05-.95.11-1.41.29-.86.34-1.36,1.3-1.22,2.32.28,2.06,1.89,2.47,3.45,2.86.2.05.4.1.59.16.13.04.44.06.93.09.47.03,1.31.08,1.54.16,0,.48,0,.97-.02,1.45-.01.36-.02.72-.02,1.07,0,.47-.02.94-.05,1.5-.02.36-.03.72-.04,1.08-.01.46-.03.92-.05,1.39l-.05,1.19c-.01.36-.06.73-.1,1.1v.12c-.06.43-.11.89-.1,1.35,0,.45.06.91.11,1.31l.02.18c.05.38.1.78.12,1.17.02.42.06.84.09,1.24l.02.27c.03.38.07.76.09,1.14.03.44.03.9.03,1.34,0,.42,0,.86.02,1.3.02.38.06.77.1,1.15l.02.18c.04.4.08.87.09,1.31,0,.37.04.75.07,1.12l.02.24c.04.48.06.89.04,1.28l-.13,2.66c-.02.41-.13.84-.23,1.25-.11.45-.23.91-.25,1.39-.01.37-.03.74-.05,1.11-.03.52-.06,1.04-.07,1.55,0,.32-.02.64-.03.96v.07c-.02.55-.05,1.09-.05,1.64,0,.48.03.97.07,1.45.03.41.07.83.07,1.23,0,.51.04,1.01.07,1.5.03.4.06,1.14.07,1.5.01.57.1,1.76.17,2.28.03.24.06.47.08.71.16,1.67.2,4.65-.68,5.05-.27.12-.98.08-1.46.05-.18-.01-.35-.02-.47-.02-.52,0-.73.1-.97.23-.14.07-.3.16-.57.24-.17.05-.35.1-.51.15-.56.15-1.08.29-1.59.67-.75.55-.8,1.53-.77,2.21.08,2.31,2.24,3.02,4.17,3.11.94.04,1.88.02,2.82,0,.81-.02,1.62,0,2.43,0,.46,0,1.03-.03,1.49.04.47.08.86.17,1.35.18.54,0,1.04-.14,1.57-.19.26-.02.52-.02.78-.01.36,0,.73.01,1.1-.05,1.52-.27,2.49-1.03,2.9-2.26.07-.2.16-.4.26-.56.22-.35.27-.74.13-1.12-.16-.45-.55-.83-1.06-1.02-.77-.28-1.75-.59-2.6-.56-.25,0-.49-.01-.74-.04-.25-.02-.51-.05-.78-.04-.12,0-.25.02-.37.03-.32.03-.63.07-.91-.04-.72-.26-.42-2.69-.31-3.82.03-.31.05-.55.06-.68v-.21c.02-.33.02-.66.04-.99.02-.37.12-.77.21-1.15l.02-.1c.12-.47.22-1.61.21-2.08-.01-.57-.04-1.51-.06-2.1l-.04-1.03c-.01-.46-.05-.91-.08-1.37-.03-.46-.07-.94-.08-1.42-.01-.49,0-.99,0-1.48,0-.43.01-.87,0-1.3,0-.55,0-1.11,0-1.66,0-.37.01-.75.01-1.12,0-.47-.07-.94-.15-1.4-.07-.46-.15-.94-.14-1.39.01-.48.04-.97.06-1.44.01-.22.02-.43.03-.64.01-.28.02-.41.03-.69.01-.41-.01-.83-.04-1.23l-.02-.25c-.03-.4-.05-.82-.05-1.23s.05-.85.09-1.26v-.07c.06-.47.1-.89.1-1.33,0-.44-.04-.89-.09-1.35-.04-.44-.08-.9-.08-1.35,0-.37.04-.76.07-1.13v-.17c.15-1.5.2-2.84.18-4.14,0-.36-.02-1.16.14-1.58.54.39.76.76.98,1.37l.09.24c.15.43.31.88.58,1.3.1.16.24.32.37.48.19.22.38.46.46.68.18.49.33,1.01.49,1.52.14.45.28.92.43,1.36.14.4.38.74.61,1.07.13.18.25.36.35.53.11.2.18.47.24.75.06.23.11.47.2.7.12.3.28.59.43.87.17.31.32.59.44.9.18.49.42.89.65,1.27.07.12.15.24.22.37.18.31.39.62.59.91.26.38.54.78.74,1.19.1.21.19.51.28.8.11.38.23.78.4,1.03.21.33.43.67.6,1.02.13.28.25.57.39.88.22.53.46,1.07.77,1.64.13.23.27.39.41.55.12.13.23.26.35.44.21.32.46.69.71,1.1.39.65.74,1.4,1.01,2.17.18.51.37,1.08.56,1.69l.2.62c.09.28.17.58.24.87.12.5.25,1.01.47,1.49.28.62.66,1.28,1.19,2.07.1.14.19.29.29.43l.12.18c.18.27.37.54.56.81.23.32.47.73.71,1.12.19.32.37.61.54.87.23.34.43.8.65,1.28.53,1.19,1.13,2.54,2.38,2.8.18.04.35.05.51.06.19.01.36.02.54.07.13.04.27.08.41.13.2.07.4.14.61.19.34.07,1.49.24,2.13-.43.3-.31.48-.7.66-1.07.12-.26.24-.51.39-.73.39-.56.68-1.14,1-1.75.07-.14.15-.29.22-.43l.06-.12c.4-.76.81-1.56,1.07-2.4.23-.77.42-1.32.8-2l.2-.36c.52-.92,1.01-1.79,1.39-2.8.08-.2.15-.41.23-.61.3-.79.62-1.6.84-2.44.13-.47.25-.92.42-1.32.18-.43.47-.85.75-1.27.26-.38.53-.78.73-1.21.2-.41.35-.84.51-1.25.17-.46.35-.94.57-1.38.2-.4.39-.81.57-1.22.19-.43.4-.91.64-1.36.22-.42.43-.87.61-1.25l.06-.12c.18-.39.37-.79.56-1.18.2-.39.48-.76.76-1.13.19-.25.23-.49.27-.72.03-.17.05-.32.13-.49.2-.41.32-.84.43-1.26.1-.38.21-.77.37-1.12.16-.35.4-.7.63-1.03l.04-.05c.23-.33.46-.67.64-1.04.13-.27.25-.56.36-.83l.1-.24c.53-1.26,1.19-2.74,2.1-4.08.11-.16.21-.36.31-.55.13-.26.27-.52.42-.69.09-.1.14-.12.14-.12.09.07.13.55.14.73,0,.07,0,.13.02.18.13,1.24.24,2.36.26,3.49,0,.39-.07.81-.14,1.23-.07.41-.15.87-.15,1.32,0,.49.06.95.1,1.4.04.41.08.8.09,1.16.01.89.06,1.65.08,2.15l.02.42c.02.45.1.92.18,1.42.07.44.16.95.17,1.43.01.4.06.8.11,1.22.05.42.1.84.09,1.27,0,.43-.07.87-.14,1.29-.06.38-.13.77-.14,1.17-.01.35-.02.7-.02,1.05,0,.45,0,.95-.04,1.43-.03.4-.02.8,0,1.19.02.43.03.87-.02,1.3-.04.33-.07.66-.1.99-.04.46-.09.98-.16,1.48-.04.28-.09.55-.13.8-.1.55-.2,1.13-.2,1.69,0,.92.03,1.78.12,2.56.04.34.05.71.07,1.09v.31c.03.38.05.83.11,1.31.07.57.13,1.41.18,2.14.03.43.06.84.09,1.16.08.85.2,1.73.37,2.71-.51.42-1.28.34-1.96.27-.11-.01-.21-.02-.31-.03-.34-.03-.68-.04-.92-.02-.26.02-.7.01-1.15,0h-.15c-1.05-.02-1.77,0-2.12.13-.38.15-.66.44-.8.85-.23.7-.05,1.15.18,1.72l.05.12c.33.83.95,1.92,2.05,2.41l.2.08c.6.25,1.5.56,2.41.64.54.05,1.09,0,1.63-.06.32-.03.69-.07,1.03-.07.56,0,1.13.04,1.64.07.33.02.64.04.95.06.4.02.78.07,1.19.13l.12.02c.53.08,1.07.16,1.69.14.77-.02,1.57-.18,2.33-.34l.33-.07c.88-.18,1.87-.42,2.49-1.04.21-.22.32-.47.31-.75-.02-.62-.59-1.23-.93-1.53Z"/>
    <path d="M422.76,86.27c.39-.2,1.12-.15,1.89-.1.53.03,1.08.07,1.58.03l.44-.04c.5-.04.96-.09,1.47-.1.64-.02,1.23-.09,1.81-.16.91-.11,1.77-.21,2.75-.1.83.1,1.63.07,2.4.05h.17c.34-.01.7-.02,1.06-.02.71,0,1.43-.05,2.1-.1.92-.08,1.87-.15,2.78-.05.96.11,1.91.13,2.98.15h.22c.93.02,1.89.04,2.83-.17,1.04-.23,2.48-1.08,2.19-2.5-.04-.22-.15-.41-.23-.57-.06-.12-.13-.24-.16-.36-.05-.19-.05-.6-.05-.96,0-.2,0-.4,0-.59,0-.07,0-.16,0-.28,0-.59-.02-1.68-.22-2.78-.17-.93-.48-1.83-.69-2.45-.07-.2-.12-.36-.15-.47-.33-1.21-1.09-2.39-1.52-2.99-.09-.12-.19-.23-.3-.34-.16-.16-.34-.35-.48-.61-.35-.67-.72-1.4-.98-2.14-.09-.26-.16-.54-.22-.82-.13-.54-.26-1.1-.57-1.6-.44-.69-1.17-1.18-2-1.7l-.12-.07c-.73-.46-1.42-.89-2.17-1.2-.64-.26-1.31-.38-1.98-.5-.19-.03-.38-.07-.57-.11-.94-.19-1.84-.22-2.59-.22-.22,0-.44,0-.67-.01-.63-.02-1.29-.04-1.94.09-.83.16-1.59.45-2.49.81-.59.23-1.1.57-1.6.9l-.03.02c-.2.13-.4.27-.61.39-.17.1-.34.2-.52.31-.55.32-1.13.66-1.66,1.09-.23.19-.48.37-.71.54-.45.33-.92.67-1.32,1.1-.37.4-.62.87-.88,1.33-.17.3-.34.61-.53.89-.15.21-.32.43-.5.66-.4.52-.86,1.12-1.24,1.77-.46.78-.83,1.69-1.15,2.8-.03.11-.07.24-.13.41-.2.64-.51,1.61-.68,2.62-.04.24-.08.47-.12.71v.09c-.12.66-.32,1.88-.42,2.04-.12.16-.32.22-.56.29-.42.12-1.12.32-1.15,1.34v.21c-.02.42-.04.89.07,1.31.05.21.15.38.24.52.05.09.1.17.13.24.02.07.03.14.03.25,0,.09,0,.19.02.29.07.54.34,1.02.75,1.32.13.09.47.17.69.21-.12.58-.22,1.39-.13,2.19l.03.27c.07.67.14,1.42.34,2.16.13.5.37.96.59,1.4.14.27.28.56.39.84.25.63.56,1.18.87,1.72.08.14.16.28.24.42.45.81.86,1.52,1.36,2.03.21.21.4.45.61.7.36.44.72.89,1.21,1.24.67.49,1.43.88,2.15,1.25l.14.07c.81.42,1.69.7,2.46.95.16.05.32.11.51.17.66.22,1.35.46,2.05.54.47.06.93.09,1.36.09h.13c.42,0,.82-.02,1.2-.07.77-.09,1.35-.09,1.89-.09h.18c.34,0,.67-.05,1.02-.1.35-.05.72-.11,1.14-.12.83-.02,1.51-.19,2.16-.36l.28-.07c.16-.04.31-.07.47-.11.67-.15,1.3-.3,1.93-.64.66-.36,1.36-.75,2.12-1.27.33-.23.58-.54.82-.85.18-.22.36-.45.56-.62.46-.41.96-.83,1.49-1.17l.12-.12c.33-.53.77-2.04.52-2.69-.18-.46-.72-.87-1.49-1.14-.72-.25-1.78-.41-2.4-.04-.26.15-.43.38-.6.61-.1.13-.2.26-.29.35-.2.17-.54.35-.85.52l-.22.12c-.6.33-1.15.78-1.68,1.22-.72.59-1.47,1.2-2.29,1.46-.66.21-1.58.22-2.39.23-.19,0-.37,0-.55,0-.39,0-.77.06-1.17.11-.63.08-1.28.17-1.86.04-.41-.09-.78-.27-1.18-.47-.43-.21-.87-.43-1.38-.54-.34-.07-.64-.08-.94-.09-.46-.01-.8-.03-1.15-.26-.7-.47-1.11-.9-1.47-1.51-.2-.33-.44-.62-.66-.88-.27-.32-.52-.62-.68-.97-.18-.39-.25-.83-.33-1.31-.04-.23-.08-.46-.13-.69-.07-.33-.18-.64-.3-.99-.14-.41-.28-.83-.37-1.29-.06-.29-.22-.66-.41-1.1-.67-1.53-.24-1.75-.07-1.83ZM432.84,68.39h0c.41.08.83.15,1.26.11.5-.05.92-.22,1.33-.38.36-.14.7-.27,1.01-.28.61-.01,1.27.23,2.07.77.12.1.52.9.69,1.25.31.63.63,1.29.95,1.69.31.4.7.78,1.07,1.15.33.33.64.64.87.92.18.23.6,1.12.96,2.4.09.32.2.64.3.97.18.57.37,1.15.48,1.69.22,1.16.14,1.85.05,2.12-.61.09-1.21.05-1.8.01-.31-.02-.64-.04-.97-.04-.37,0-.75-.07-1.1-.13-.39-.07-.79-.14-1.22-.15-.42,0-.83.06-1.23.12-.34.05-.71.11-1.08.11h-.01c-.36,0-.72,0-1.04.02h-.25c-.3.02-.68.03-1.03.03h-.19c-.82-.02-1.76-.03-2.68.22-.29.08-.57.17-.86.26-.62.2-1.2.39-1.77.42-.36.02-.73-.07-1.16-.18-.3-.08-.61-.15-.94-.19-.17-.02-.34-.03-.52-.03h-.1c-.19,0-.39,0-.58.01-.34.01-.68.02-1.01,0l-.18-.02c-.48-.04-.94-.09-1.41-.08.07-.32.1-.65.14-.97.06-.49.11-.94.25-1.3.2-.51.66-1.54,1.19-2.58.22-.43.51-.86.8-1.28.24-.37.5-.75.71-1.13.14-.25.27-.49.4-.71l.06-.1c.4-.72.74-1.35.94-1.59.37-.45.9-.74,1.48-1.05.37-.2.74-.4,1.09-.66.24-.18.47-.4.7-.64.34-.34.69-.7,1.02-.81.38-.13.83-.04,1.3.04Z"/>
    <path d="M354.42,80.15c-.05-.56-.24-1.1-.41-1.63-.11-.34-.23-.68-.31-1.03-.03-.13-.06-.26-.09-.41v-.07c-.17-.7-.33-1.42-.6-2.16-.09-.24-.28-.59-.52-1.04-.2-.38-.43-.81-.67-1.29-.16-.32-.28-.72-.39-1.1-.14-.46-.28-.93-.5-1.35-.58-1.1-1.24-1.97-1.52-2.25-.38-.37-.84-.66-1.35-.98-.25-.16-.5-.32-.75-.49-.17-.12-.35-.25-.54-.39-.48-.35-.98-.72-1.55-1.04-.75-.43-1.5-.82-2.23-1.16-.54-.25-1.09-.43-1.64-.62-.24-.08-.47-.16-.71-.24-.32-.11-.63-.27-.94-.43-.47-.24-.91-.46-1.39-.57-1.03-.23-1.88-.34-2.56-.33-.78,0-1.49.13-2.13.25l-.22.04c-.71.12-1.3.39-1.88.65-.12.06-.24.11-.37.16-.73.32-1.33.74-2.01,1.28-.17.14-.36.27-.54.4-.45.32-.91.65-1.31,1.12-.29.34-.49.73-.7,1.15-.16.31-.32.63-.52.91-.18.25-.42.49-.68.75-.3.3-.61.61-.88,1-.12.17-.3.35-.47.52-.25.25-.52.5-.69.82-.18.33-.55,1.47-.7,1.95-.13.41-.29.83-.4,1.15-.13.34-.22.61-.27.78-.16.65-.29,1.51-.45,2.78-.08.68-.13,1.4-.18,2.16l-.04.63c-.07.95-.09,1.95-.11,2.8,0,.38-.04.76-.06,1.14-.04.55-.08,1.11-.06,1.67.03.76.14,1.47.25,2.18.03.21.07.42.09.63.16,1.13.31,2.11.65,2.83.23.48.58,1.03,1,1.67.12.18.23.36.35.55.17.27.33.57.5.89.24.45.48.91.79,1.34.31.43.7.78,1.07,1.12.27.24.52.47.73.72.73.87,1.4,1.46,1.83,1.8.16.12.32.27.49.43.39.36.83.77,1.41,1.04.16.07.32.15.49.23.53.26,1.08.52,1.67.72.62.2,1.28.35,1.91.49l.73.17c.62.14,1.26.29,1.9.38.62.09,1.22.1,1.8.12.18,0,.35,0,.52.02.05,0,.1,0,.14,0,.1,0,.2,0,.3-.01.44-.03.85-.13,1.23-.21.23-.05.45-.1.65-.13.73-.1,1.55-.32,2.43-.63.21-.08.44-.15.68-.23.55-.18,1.12-.36,1.68-.65.26-.13.54-.26.8-.37.5-.22,1.01-.45,1.48-.78.53-.38.98-.85,1.43-1.34.15-.16.29-.31.44-.46.78-.78,1.29-1.41,1.66-2.03.59-.99.72-2.23,1.03-3.33.38-1.34.89-2.64,1.16-4.01.47-2.34-.46-4.7-.07-7.01.09-.54.18-1.09.13-1.67ZM337.26,66.66c.05,0,.11,0,.16,0,.4,0,.82.1,1.25.19.15.03.29.07.43.09.57.11,1.08.39,1.79.95.39.31,1.16,1.03,1.99,1.94.46.5.92,1.05,1.38,1.61.16.19.32.39.48.57.15.17.29.34.43.5l.06.07c.56.66,1.09,1.28,1.24,1.58.08.17.17.33.27.51.25.46.48.9.56,1.34.06.34.11.69.15,1.03v.06c.05.35.1.69.16,1.04.02.14.04.27.06.41v.03c.09.57.17,1.15.47,1.74.48.93.62,1.43.77,1.97l.06.2c.14.48.3,1.02.28,2.11,0,.26,0,.51.01.79.01.55.03,1.12-.07,1.64-.12.65-.34,1.3-.56,1.94l-.13.38c-.25.72-.56,1.47-.93,2.23-.1.19-.19.39-.29.59-.25.53-.52,1.08-.83,1.56-.23.35-.56.67-.88.97-.26.25-.52.5-.76.79-.52.65-1.08,1.23-1.6,1.76-.37.37-1.73,1.05-2.21,1.09-.46.04-1.23.11-2.11-.03-.17-.03-.35-.05-.54-.08-.55-.08-1.11-.17-1.67-.3-.41-.1-.82-.27-1.22-.45-.3-.13-.59-.25-.89-.35-.4-.13-.79-.21-1.14-.29-.41-.09-.8-.17-.97-.29-.27-.19-.58-.55-.93-.97-.26-.31-.53-.64-.85-.96-.24-.25-.5-.49-.77-.73-.39-.36-.79-.73-1.12-1.11-.66-.78-1.24-1.55-1.59-2.11-.24-.38-.36-1.4-.48-2.6-.1-.95-.16-1.92-.18-2.79l-.02-.57c-.02-.76-.04-1.54-.02-2.24.04-1.33.1-2.26.18-2.77.03-.18.16-.6.3-1.09.15-.51.34-1.14.5-1.77.11-.43.21-.86.31-1.3.13-.55.32-1.37.4-1.5.23-.39.64-.57,1.06-.76.35-.15.67-.29.94-.56.34-.33.67-.8,1.04-1.32.15-.22.31-.44.47-.66.41-.55.92-1.01,1.38-1.43l.24-.22c.21-.2.41-.42.59-.62.32-.35.65-.72,1.02-.93.52-.29,1.29-.69,2.03-.86.08-.02.17-.03.27-.04Z"/>
    <path d="M294,64.55c-.57-.62-1.43-.85-2.43-1.11l-.12-.03c-.2-.05-.42-.12-.66-.2-.61-.2-1.3-.42-2.06-.44-.8-.02-1.62.09-2.42.2l-.34.05c-.86.11-1.77.33-2.7.64-.97.32-1.72.85-2.45,1.42-.71.54-1.3,1.15-1.91,1.99-.39.53-1.13,1.34-1.65,1.84,0-.61.05-1.35.11-2.01v-.07c.1-1.12.22-2.51-.92-3.04-.75-.34-1.44-.56-2.12-.65-.41-.06-.84-.02-1.25.01-.29.02-.59.05-.86.03-.38-.02-.76-.09-1.09-.16-.38-.07-.71-.13-1.01-.13-2.05.05-4.2.44-4.68,2.9-.23,1.16.05,2.1.77,2.58.66.44,1.69.48,2.78.53,1.32.06,2.69.11,3.01.93.36.9.35,2.2.22,3.1-.12.86-.06,1.7,0,2.52.05.68.09,1.38.03,2.05-.05.54-.12,1.07-.19,1.59-.13,1-.25,1.95-.26,3,0,.55.09,1.06.18,1.56.1.56.2,1.09.15,1.65l-.04.44c-.08.86-.16,1.75-.14,2.66l.02.7c.04,1.46.08,2.97.22,4.39.07.68-.04,1.37-.14,2.04-.07.45-.15.95-.16,1.45v.09c0,.22-.02.22-.07.26-.2.13-.56.13-.92.14-.22,0-.42,0-.6.04-.13.02-.26.04-.39.06-.53.07-1.04.14-1.66.63-.54.41-1.08,1.13-1.35,1.79-.23.56-.21,1.15.06,1.63.26.47.72.77,1.3.86.5.07.96-.03,1.4-.13.22-.05.44-.02.71.02.11.02.21.03.32.04.17.02.32,0,.48,0,.2-.01.38-.02.56.03.43.12.88.24,1.36.25.11,0,.22,0,.33,0h.19c.31,0,.63,0,.93-.02.37-.01.79-.02,1.19-.01,1.08.02,1.95.02,2.65,0,1.42-.05,2.46-.28,2.85-.63.62-.56.54-2.73.21-3.23-.16-.24-1.84-1.23-1.98-1.27-.37-.1-.73-.07-1.11-.05-.12,0-.25.02-.38.02-.05,0-.1,0-.16,0-.49.03-.65-.01-.71-.18-.08-.25-.07-.6-.05-.93,0-.23.02-.5,0-.73-.06-.6,0-1.18.02-1.52.01-.15.02-.27.02-.35,0-.34-.01-.69-.02-1.04-.02-.46-.03-.97-.02-1.47,0-.3.01-.6.02-.91,0-.24-.02-.5-.03-.75-.02-.3-.05-.61-.03-.89.03-.44.11-.89.18-1.32.06-.36.13-.74.17-1.13.04-.4.04-.8.04-1.2,0-.43,0-.88.06-1.29.04-.28.08-.57.12-.85.03-.27.03-.58.02-.92-.01-.36-.02-.74.03-.99.08-.4.26-.81.43-1.2.06-.13.2-.36.35-.6.23-.37.47-.75.53-1,.21-.81.45-1.57.71-2.33.11-.33.31-.63.51-.95.19-.3.39-.61.57-1,.12-.27.31-.58.5-.9.17-.29.37-.62.55-.96.24-.47.42-.88.62-1.32.12-.27.24-.54.37-.81.25-.52.63-.89,1.39-1.35.2-.12.93-.54,1.79-.76.75-.19,1.54-.3,1.92-.27.3.02.68.22,1.05.41.2.1.41.21.61.3.09.04.18.08.28.12l.04.02c.66.28,1.47.64,2.29.69.47.03,1.89.12,2.31-1.66.34-1.45.24-2.24-.39-2.93Z"/>
    <path d="M386.61,64.32c-.15-.07-.3-.15-.48-.23-.51-.26-1.1-.55-1.75-.71-.53-.13-1.04-.16-1.54-.18-.16,0-.19-.01-.25-.03-.04,0-.1-.02-.21-.04-.78-.11-1.84-.22-2.44-.11-.04,0-.1.02-.19.03-.43.06-1.22.17-2.04.56-.38.18-.75.42-1.11.64-.27.17-.52.33-.77.46l-.2.11c-.81.43-1.45.78-1.76,1.01-.68.51-1.29,1.11-1.75,1.72-.02.03-.05.07-.07.1,0-.05,0-.11,0-.16,0-.14-.01-.29-.02-.46-.02-.73-.05-1.48-.49-2.14-.43-.65-1.13-1.17-2.14-1.57-.35-.14-1.14-.24-2.41-.32-.24-.01-.49-.04-.78-.06h-.05c-.47-.05-.96-.09-1.43-.09-.89-.01-1.64.18-2.09.29l-.07.02c-.07.02-.12.03-.17.04-.18.04-.37.05-.58.07-.58.05-1.3.11-1.71.73-.25.37-.33.78-.42,1.19-.05.26-.11.5-.2.72l-.08.17c-.23.52-.48,1.11.15,1.79.37.4.71.45,1.16.47.58.03,1.19.04,1.76.05.47,0,.94.02,1.41.04.09,0,.19,0,.29,0,.62,0,.86.05.96.32.17.47.19,1.01.2,1.54,0,.23.01.49.04.74.04.39.07.8.08,1.19,0,.43-.03.86-.07,1.32-.04.45-.08.91-.08,1.38,0,.43.04.85.07,1.23.04.5.07.97.06,1.44-.02.48-.11.95-.21,1.46-.06.28-.11.57-.16.86-.12.81-.18,1.67-.18,2.53,0,.84.04,1.7.09,2.43.05.86.12,1.74.17,2.4.03.41.05.83.07,1.24v.03c.02.37.03.74.06,1.11.04.55.04,1.11.05,1.64,0,.24,0,.48.01.71,0,.29.05.42.09.58.02.08.05.18.08.31.06.28.03.56,0,.85,0,.1-.02.19-.02.28-.01.2-.02.39-.02.6,0,.33-.01.67-.06.99-.01.08-.04.16-.07.25-.03.1-.07.22-.09.35,0,.04,0,.08-.01.12-.01.16-.03.21-.06.23-.12.08-.4.08-.61.07-.13,0-.25,0-.35,0-.16.01-.3.04-.43.07-.06.01-.12.03-.18.04-.24.04-.47.07-.68.1-.67.08-1.29.15-2,.71-.69.54-1.28,1.56-1.04,2.59.15.66.78,1.06,1.24,1.35.68.43,1.47.44,2.26.44.18,0,.36,0,.53.01.4.02.79.04,1.17.06h.04c.76.04,1.42.08,1.86.08.27,0,.57.05.9.11.42.07.85.14,1.32.14h.03c.46,0,.89-.09,1.32-.18.34-.07.65-.13.95-.15.92-.05,1.67-.12,2.29-.22.36-.06.67-.17.97-.29.14-.05.28-.1.42-.15l.25-.07.19-.33c.12-.21.29-.5.19-.86-.07-.23-.22-.41-.46-.54l.02-.04c.16-.52.13-1-.1-1.4-.41-.72-1.35-1.02-2.12-1.19-1.04-.24-2.1-.16-2.75,0-.07-.32-.11-.89-.05-1.67.04-.46.1-.94.16-1.33.06-.49.12-.87.11-1.13,0-.56-.06-.96-.12-1.43-.02-.16-.05-.33-.07-.52-.04-.35-.05-.72-.06-1.12,0-.31-.02-.7-.05-1.07-.07-.73-.08-1.41-.04-2.08.03-.49.14-1.27.28-2.29.04-.3.07-.61.11-.94.04-.41.1-.91.18-1.38.07-.44.08-.87.08-1.29,0-.39,0-.75.07-1.06.22-1.13.49-1.98.56-2.22.08-.24.5-.89.9-1.52l.03-.04c.12-.19.25-.39.38-.59.25-.39.55-.79.88-1.25.21-.29.43-.58.64-.88.22-.32.44-.66.63-.96l-.14-.09h0l.16.06c.28-.43.54-.84.81-1.19.81-1.05,1.41-1.63,1.59-1.74.04-.02.28-.09.39-.12.39-.11.97-.28,1.53-.51.55-.23,1.08-.5,1.46-.7.11-.05.22-.11.29-.15.52,0,1.19.16,2.24.43.18.05.36.1.54.14l.12.03c.28.08.57.2.87.33.67.29,1.36.58,2.1.44.48-.09.89-.33,1.29-.55.1-.06.22-.13.33-.24.14-.16.2-.35.24-.54.33-1.46-.39-2.58-2.21-3.43Z"/>
    <g>
      <path d="M314.23,65.41h0l.16-.02-.03-.21c-.12-.9-.36-1.14-1.03-1.57-.08-.05-.16-.11-.25-.18-.13-.09-.27-.2-.42-.29-.23-.13-.47-.21-.76-.26-.53-.08-1.08-.02-1.61.05-.31.04-.63.07-.93.07-.27,0-.56-.03-.88-.08l-.12-.02c-.47-.06-.95-.13-1.44-.09-.2.02-.33.01-.44.01-.2,0-.35,0-.68.1-.15.05-.5.04-.76.03-.2,0-.35-.01-.45,0-.16.02-.42,0-.71,0-.92-.04-2.31-.1-2.65,1.03-.39,1.27-.05,1.69.39,2.08.09.08.17.14.21.23.03.06.05.32.05.45.02.41.05.98.49,1.28.53.35,1.27.27,2.05.18.15-.02.32-.04.51-.07.72-.11,1.92-.29,2.37.09.17.14.1.71.05,1.05-.02.13-.03.25-.04.35-.15,2.59.03,5.14.2,7.61.03.45.06.91.09,1.36.12,1.76.07,3.21-.15,4.58-.17,1.06-.16,2.13-.16,3.17,0,.99,0,2.02-.15,3.01-.14.91-.12,1.81-.1,2.69,0,.23,0,.47.01.71.02,1.03.03,2.09.15,3.1.16,1.39-.02,2.8-.19,4.16-.08.64-.17,1.37-.22,2.08-.04.59-.14,1.18-.24,1.76-.08.45-.16.93-.21,1.39l-.07.45c-.31,1.76-3.35,2.29-4.91,2.32-.73.01-1.41-.18-2.07-.36-.86-.24-1.75-.49-2.76-.33-.86.13-1.47.59-1.68,1.25l-.05.16c-.31.94-.62,1.91.27,2.77.61.59,1.39.89,2.16,1.2.18.07.35.14.53.21,1.11.47,2.26.69,3.64.69.99,0,1.96-.11,2.99-.23h.06c.45-.06.9-.11,1.36-.15,2.86-.25,4.45-2.59,4.98-4.69.13-.51.32-.99.51-1.47.31-.78.63-1.58.67-2.51.14-2.98.24-5.47.07-8.08-.17-2.73.03-5.57.23-8.31l.08-1.14c.18-2.61.06-5.3-.06-7.92-.03-.59-.05-1.17-.08-1.76-.06-1.5.03-2.9.12-4.37l.04-.63c.02-.39-.05-.89-.12-1.42-.1-.74-.21-1.51-.05-1.93.11-.29.44-.5.81-.73.47-.29,1-.62,1.28-1.25.22-.48.13-1.1.06-1.59l-.16.02Z"/>
      <path d="M312.35,45.03h-.06c-.5-.04-.92-.2-1.4-.34-.29-.08-.69-.2-.99-.11-.25.08-.48.26-.7.39-.31.18-.58.13-.92.15-.6.02-1.11.21-1.37.78-.11.25-.17.48-.18.75-.02.47.04.75-.2,1.15-.12.21-.28.41-.29.65-.05.79.11,1.8.65,2.41.13.14.11.3.28.44s.39.23.59.29c.38.11.75.16,1.1.34.47.24.86.52,1.4.6.49.07,1.01.04,1.46-.17.16-.08.31-.15.49-.18.52-.08,1.04-.1,1.49-.39.43-.27.55-.88.58-1.35.03-.59-.11-1.19-.07-1.78.02-.4.22-.83.3-1.23.06-.32.17-.65.09-.97-.28-1.11-1.24-1.35-2.25-1.43Z"/>
    </g>
    <g>
      <path d="M407.43,97.61c-.58-.05-1.15-.03-1.71,0-.13,0-.25.01-.38.02.05-.46.09-1.05.12-1.57.03-.38.05-.73.07-.98l.05-.49c.06-.61.07-1.24.07-1.84v-.03c0-.32,0-.65.02-.97.01-.29.03-.58.04-.89.03-.63.07-1.29.06-1.95,0-.84-.02-1.84-.08-2.84-.05-.81-.13-1.34-.19-1.77-.05-.32-.08-.55-.08-.78,0-.2.08-.44.18-.76.13-.41.29-.92.42-1.7.1-.61.05-1.22-.01-1.86-.03-.37-.07-.75-.07-1.12,0-.94-.03-1.92-.09-2.91-.03-.45-.05-.9-.08-1.37v-.04c-.03-.5-.06-.99-.09-1.48-.07-1.06-.07-2.09-.06-2.87,0-.29.04-.71.08-1.22.03-.42.07-.87.09-1.32v-.19c.06-1.03.12-2.09-.64-2.61-.76-.52-1.76-.87-2.74-.98-.58-.06-1.16.04-1.73.14-.74.13-1.39.2-2.25.28-.47.04-.77.17-1.08.3-.1.04-.21.09-.33.14-.2.08-.39.12-.58.15-.49.1-.99.21-1.23,1.05-.53,1.9.65,2.56,1.87,2.95.82.26,1.94.42,3.09.43.03.61.12,1.19.29,1.81l.03.13c.24.93.36,1.65.39,2.27.03.55-.08,1.06-.19,1.59-.11.51-.22,1.04-.22,1.64,0,.62.08,1.17.15,1.7.05.38.1.75.11,1.1.02.47-.03.94-.09,1.43-.05.43-.1.88-.1,1.35,0,.66-.07,1.35-.14,2.14l-.06.59c-.04.48-.05.98-.05,1.46,0,.34,0,.7-.02,1.04-.03.49,0,.97.02,1.45.02.35.04.71.03,1.06,0,.35-.05.72-.09,1.08-.05.46-.1.94-.09,1.43.02.64.09,1.29.15,1.92l.11,1.12c.06.67.14,1.59.21,2.05v.08c.05.19.08.37.1.51-.05.16-.68.18-1.15.18-.69,0-1.96.05-2.97.37h0s-.16.02-.16.02c-.3.06-.55.13-.83.21-.09.04-.35.18-.41.47-.02.08-.02.16,0,.24-.08.15-.14.3-.16.47,0,.05-.01.07-.01.08-.16.14-.17.3-.13.53l.03.19.13.03c-.02.2,0,.4.05.59.23.76,1.99,1.35,2.01,1.35.89.25,1.64.42,2.4.44.57.01,1.12-.06,1.68-.12l-.02-.16h0l.06.16c.22-.03.44-.05.66-.07.33-.03.67-.1,1-.17.42-.09.86-.18,1.29-.18.34,0,.73.12,1.15.25.37.12.76.24,1.16.29.24.03.5.05.77.05.65,0,1.27-.09,1.74-.18l.14-.02.1-.1c.7-.71.84-1.43.89-2.12.02-.23.02-.46.03-.7,0-.21.01-.23.02-.25.02-.05.05-.13.08-.37l.04-.27-.23-.15c-.8-.52-1.72-.84-2.66-.93Z"/>
      <path d="M400.59,52.93c.32.01.7.03,1.1.03,1.61,0,3.65-.28,4.3-2.11.38-1.06.38-2.76.18-3.89-.15-.85-.82-1.39-2.01-1.59-.83-.14-1.89-.12-3.16.06-.52.08-1.09.19-1.7.51-.89.47-.9,1.19-.91,1.94,0,.32,0,.66-.08.99-.25,1.11-.05,1.8.46,2.85.42.87.73,1.15,1.82,1.2Z"/>
    </g>
    <path d="M260.33,100.44c-.1-.26-.06-.39,0-.57.06-.17.14-.39.06-.73-.04-.19-.13-.35-.25-.49-.42-.45-1.75-.81-2.31-.78-.88.04-1.75.27-2.02-.81-.19-.78-.09-2.42-.09-3.22,0-1.04,0-2.08-.05-3.11-.03-.57.07-1.08.18-1.62.35-1.64-.02-3.33.11-4.98.04-.48.17-1.14.14-1.58-.03-.47-.05-.9-.01-1.35,0-.11.01-.17.02-.28.04-.6.07-1.19-.03-1.86-.05-.32-.13-.64-.2-.95-.1-.42-.2-.82-.22-1.19-.03-.35.02-.62.07-.89.05-.27.1-.55.09-.94-.03-.96-.46-1.88-.56-2.84-.04-.38-.05-.73-.1-1.11-.11-.8-.25-1.63-.52-2.39-.13-.36-.34-.67-.54-.96-.15-.23-.3-.43-.4-.64-.1-.21-.2-.41-.29-.61-.35-.73-.68-1.39-1.32-1.83-.32-.22-.91-.46-1.33-.59-.27-.08-1.22-.65-1.47-.75-1.35-.54-3.26-1.02-5.52-1.06-.67-.01-1.38.07-2.04.13-.25.02-.5.04-.74.06-.51.03-1.05,0-1.56-.02-.66-.03-1.34-.07-2.01.01-.72.09-1.56.31-2.58.68-.72.26-1.35.48-2.12.62-.02,0-.03,0-.05,0-.83.15-1.38.58-1.97,1.04-.09.07-.14.11-.23.18-.39.3-.81.59-1.21.87-.35.24-.69.48-1.03.73-.1.08-.24.16-.39.24-.26.15-.53.3-.7.5-.52.63-.59,1.47-.2,2.37.55,1.27,1.86,2.32,2.99,2.41,1.29.1,3.23-.8,4.1-1.66.43-.42.57-.99.7-1.55.09-.37.18-.71.34-1.01.46-.84,1.79-.93,2.97-1.02.4-.03.78-.06,1.1-.11.23-.04.45-.08.67-.12,1.82-.33,2.58-.55,4.18-.34.78.1,1.74.17,2.27.43.43.21,1.52.61,1.61,1.05.12.57.38.86.84,1.33.36.36.83,2.14.47,2.86-.61,1.18-1.93,1.83-3.08,2.44-.42.22-.82.43-1.16.63-1.25.75-2.42,1.38-3.47,1.92-.42.21-.8.52-1.18.82-.45.36-.91.75-1.4.95-.77.33-1.65.44-2.61.53-1.04.1-2.15.16-3.16.45-1.02.29-1.85.76-2.71,1.27-.76.44-1.54.92-2.36,1.35-.27.14-.53.73-.91,1.62-.11.26-.21.49-.27.6-.15.28-.3.56-.46.84-.25.46-.51.93-.76,1.41-.77,1.45-1.58,3.03-2.04,4.56-.89,2.91-.07,4.55.76,6.64.08.19.15.39.23.59.31.8.68,1.39,1.53,1.88.32.18.63.37.95.55,2.14,1.26,4.25,2.4,7.07,2.66.27.02.55.04.83.05.63.02,1.25-.06,1.84-.13.52-.07,1.05-.15,1.6-.16.44-.01.88.02,1.3.05.56.03,1.13.05,1.69-.06.89-.18,1.63-.76,2.51-1.36.3-.2.61-.41.93-.6.31-.18.69-.35,1.1-.53.88-.37,1.82-.73,2.34-1.27.1-.1.19-.21.29-.31.14-.16.29-.32.45-.45.16-.13.31-.24.46-.38.12-.12.38-.27.46-.04.04.11.02.26.03.38.02.17.06,1.02.07,1.19.02.44.07.97.24,1.38.14.32.39.5.64.71.15.13.3.26.44.39.27.24.62.33.96.43.41.11.84.07,1.25.02.14-.02.27-.03.41-.05.17-.02.26-.02.43-.04.64-.06,1.64.16,2.29.05.77-.13,2.3-.24,3.02-.63,1.09-.58.87-1.15.59-1.84,0-.02-.01-.03-.02-.05ZM250.06,83.26c.06.84.11,1.75-.02,2.64-.14.93-.17,1.93-.2,2.89-.02.9-.04,1.82-.17,2.63-.15.99-1.06,1.56-1.87,1.93-.96.44-1.49.66-2.3,1.42-.8.75-1.53.92-2.42,1.42-.55.3-.87.88-1.37,1.24-1.83,1.33-3.88,1.49-6.06,1.37-.15,0-.22-.01-.36-.02-1.57-.08-3.21-.58-4.54-1.38-1.66-1.01-2.04-3.53-1.29-5.71.6-1.72,1.41-3.53,2.13-4.74.83-1.4,2.7-1.77,3.91-2.69.93-.7,1.74-.59,2.84-.77.9-.15,1.67-.67,2.49-.98,1.01-.39,1.96-.29,3.07-.44,1.34-.18,2.25-1.01,3.28-1.83.32-.26.66-.49.99-.74.25-.19.51-.36.74-.56.2-.17.4-.38.68-.38.41,0,.39.49.38.76-.01.52.01,1.04.01,1.56,0,.24,0,.36,0,.59-.01.61.04,1.16.09,1.8Z"/>
  </g>
  <path d="M17.99,41.85c0,.63,0,1.29-.01,1.92-.07,3.19.45,5.75,1.61,7.81.66,1.19,1.32,2.44,1.94,3.65.84,1.62,1.72,3.3,2.65,4.88.71,1.2,1.56,2.18,2.56,3.33.27.31.55.63.84.97l.08.09c1.53,1.8,2.16,2.55,4.45,3.62.27.13.54.24.8.34.51.21,1,.41,1.45.72,2.29,1.6,5.91,3.55,10.11,3.76.26.01.58.02.94.02,1.68,0,4.2-.23,4.93-1.56.3-.53-.19-1.38-1.19-2.06-1.45-.99-3.21-1.06-4.9-1.13-.85-.04-1.65-.07-2.41-.21-2-.37-4.16-1.85-5.26-2.7-.43-.33-.91-.64-1.37-.94-.97-.62-1.96-1.27-2.63-2.15-.67-.88-1.43-1.5-2.17-2.09-.5-.4-.97-.78-1.4-1.23-1.83-1.92-3.22-3.82-4.39-5.98-.33-.61-.44-1.23-.55-1.88-.06-.35-.13-.71-.22-1.08l-.21-.77c-.46-1.71-.99-3.65-.94-5.4.02-.63.01-1.28.01-1.91v-.41c0-1.3-.07-2.63-.13-3.75-.17-3.16-.02-5.66.48-7.88.19-.84.29-1.51.34-2.24,0-.14.02-.28.03-.42.09-1.08.22-2.55-1.58-2.72-1.36-.12-2.53,1-2.85,2.12-.3,1.03-.36,2.01-.42,2.95-.03.53-.07,1.02-.14,1.53-.05.34-.15.59-.25.86-.15.39-.31.8-.27,1.4.06.93.03,1.66,0,2.44-.03.68-.06,1.38-.02,2.24l.02.46c.05,1.07.09,2.08.09,3.09v.31Z"/>
  <path d="M27.62,21.93c1.74-.19,3.56-.03,5.49.15.51.05,1.01.09,1.53.13.99.08,1.87.4,2.72.71,1.09.4,2.12.77,3.29.63.4-.05.82-.11,1.24-.18.96-.15,1.95-.31,2.98-.29.62.01,1.27-.02,1.89-.04,1.24-.06,2.52-.11,3.74.15,1.51.33,2.97.8,4.36,1.41,1.41.62,6.17,2.91,8.1,6.35.31.56.49,1.07.65,1.57.27.81.53,1.57,1.3,2.4,1.9,2.04,2.45,4.88,2.9,7.86.03.2.06.43.08.67.14,1.24.34,2.93,1.28,3.64.29.21.63.32,1,.32.13,0,.26-.01.4-.04,1.31-.24,2.02-1.95,2.05-3.52,0-.3-.02-.6-.06-.86-.27-1.47-.67-3.16-1.12-4.64-.25-.84-.64-1.57-1.02-2.27-.2-.37-.4-.74-.58-1.13-.2-.44-.36-.9-.51-1.36-.18-.55-.37-1.11-.65-1.64-1.17-2.22-3-4.3-5.27-6.8-4.9-5.37-10.66-6.49-15.66-6.87-.6-.05-1.2-.13-1.79-.22-1.05-.15-2.13-.31-3.16-.22-.28.03-.55.05-.82.08-1.16.12-2.26.23-3.36.1-.52-.06-1.03-.2-1.57-.35-.63-.17-1.27-.35-1.97-.41-2.67-.23-5.81-.42-8.88-.1-.03,0-3.48.38-4.15,1.76-.13.27-.21.69.12,1.21,1.23,1.93,3.93,1.95,5.42,1.78Z"/>
  <path d="M75.49,42.34s.03,0,.05,0c2.45,0,3.38-6.77,3.39-6.84.1-.72.15-.87.41-1.17.26-.3.63-.6,1.13-.99.7-.54,1.49-1.16,2.13-2.06.45-.63.77-1.25,1.09-1.87.31-.6.59-1.12.92-1.54,2.13-2.73,6.23-4.62,9.97-4.62.2,0,.45.01.68.02.5.03,1.01.05,1.48-.03.47-.08.89-.3,1.3-.51.43-.22.83-.43,1.24-.44,1.94-.07,3.92-.06,5.84-.06h.55c.59,0,1.17.03,1.74.06,1.25.06,2.55.11,3.89-.09l.29-.04c.36-.05.75-.11,1.12-.18,3.07-.6,5.5-.38,7.42.66,1.61.87,2.03,2.09,1.61,4.65-.08.47-.15.97-.21,1.52-.09.97.1,1.91.28,2.82.08.41.17.83.23,1.26l.07.48c.23,1.55.44,3.02.3,4.44-.08.81-.24,1.65-.39,2.37l-.08.38c-.16.78-.33,1.6-.44,2.43-.15,1.13-.12,2.15-.1,3.13v.11c.02.67.04,1.3,0,1.9-.32,4.84-1.27,8.31-3.08,11.27-.62,1.02-2.07,1.88-3.26,2.52l-.55.29c-1.86.99-3.78,2.01-5.19,3.67-1.89,2.22-5.18,2.53-8.08,2.81-.62.06-1.22.12-1.79.19l-.32.04c-1.35.17-2.42.31-3.62,1.02-1.06.63-1.6,1.39-1.53,2.13.04.33.2.81.57,1.06.59.4,1.27.55,2,.55,1.04,0,2.17-.3,3.22-.58.6-.16,1.16-.31,1.67-.39.6-.1,1.24-.19,1.89-.28,3.51-.48,7.49-1.03,9.91-3.74,1.03-1.15,2.55-2.1,4.03-2.97,1.19-.71,3.38-2.16,4.67-3.95,2.94-4.07,3.65-9.6,3.93-13.4.06-.82.06-1.6.05-2.34v-.3c-.01-.75-.02-1.46.06-2.14.07-.61.18-1.24.3-1.9l.09-.51c.15-.86.3-1.79.36-2.77.13-2-.19-4.16-.47-6.07l-.03-.19c-.06-.41-.14-.8-.21-1.17-.16-.8-.3-1.48-.21-2.21.06-.43.11-.88.21-1.21.97-3.24-1.11-6.6-3.45-8.34-1.96-1.46-4.35-1.35-6.46-1.25-1.42.07-3.44.15-4.59.11-.74-.03-1.48-.08-2.22-.14-.79-.06-1.61-.12-2.42-.15-.87-.03-1.64.15-2.39.31-.43.1-.84.19-1.26.24-.54.07-1.15.05-1.74.03-.29-.01-.58-.03-.86-.02-.97,0-1.93.12-2.87.24-.82.1-1.67.21-2.53.23-5.89.19-11.28,2.6-14.42,6.43-.58.71-.97,1.48-1.32,2.16l-.05.09c-.25.49-.49.95-.76,1.34-.28.39-.73.75-1.29,1.18l-.27.2c-.49.38-1.05.8-1.43,1.32-1.12,1.57-2.57,7.68-1.48,9.9.34.7.86.86,1.23.87Z"/>
  <path d="M70.28,104.29c-2.08.37-3.89,4.71-5.43,8.74-.26.68-.46,1.22-.6,1.5-1.13,2.38-2.47,4.78-4.62,6.17-.72.46-1.49.82-2.4,1.22l-.18.08c-.47.21-.96.43-1.46.67-.44.22-.86.45-1.26.69l-.1.05c-.83.48-1.61.93-2.51.95-.47.01-.95.01-1.42,0h-.14c-1.66,0-3.53-.02-5.5.45-1.56.37-3.42.45-4.52.19l-.31-.07c-.29-.07-.57-.13-.85-.2-2.83-.73-5.49-1.07-8.1-1.05h-.7c-2.34.04-5.27.07-7.24-.88-.34-.16-.32-1.72-.31-2.23,0-.34,0-.68,0-.98-.03-.7-.07-1.42-.12-2.12l-.09-1.48c-.17-2.8-.34-5.7-.14-8.38.16-2.07.51-4.74,1.76-6.94.09-.15.2-.33.33-.53.31-.48.66-1.02.92-1.73.45-1.21.47-2.39.49-3.35.01-.73.02-1.37.24-1.77l.31-.58c.52-.98.72-1.25.78-1.33.07-.08.12-.11.32-.25.39-.26,1.05-.7,1.59-1.65.3-.53.5-1.06.7-1.61l.04-.11c.16-.44.3-.85.49-1.12.16-.23.31-.35.7-.64l.07-.05c.27-.2.57-.42.91-.72.5-.44.85-.89,1.19-1.34.17-.23.34-.46.48-.57,1.46-1.17,3.76-1.49,5.8-1.78.51-.07,1.01-.14,1.46-.22.8-.14,1.35-.54,1.89-.92.19-.14.39-.28.6-.42.83-.51,2.02-.8,2.99-1.04l.6-.15c.89-.22,1.81-.44,2.67-.76,1.05-.4,1.72-.88,1.98-1.46.36-.8.22-1.36.03-1.7-.3-.54-.92-.89-1.73-.99-1.46-.18-2.9.18-4.29.53-.61.15-1.24.31-1.85.42-1.53.27-3.03.93-4.49,1.57-.77.34-1.5.66-2.21.91-.4.14-.83.28-1.27.43-1.82.59-3.89,1.26-5.25,2.52-.45.41-.75.87-1.06,1.33-.17.26-.34.5-.47.63-.19.18-.38.33-.59.5-.43.34-1.02.81-1.57,1.61-.51.75-.8,1.52-1.05,2.27-.12.37-.24.72-.36.94-.03.02-.07.05-.16.11-.26.17-.69.47-1.13.97-.48.56-.9,1.36-1.27,2.13-.09.18-.17.36-.24.5-.67,1.34-.6,2.68-.54,3.83.03.65.07,1.27-.07,1.68-.07.21-.25.49-.44.8l-.05.08c-.13.21-.27.42-.4.66-1.4,2.59-2.33,5.51-2.77,8.69-.39,2.84-.48,5.97-.29,9.86.05.92.07,1.89.09,2.81,0,.24,0,.5-.01.8-.05,1.72-.13,4.61,2.29,5.86,3.25,1.68,7.37,1.74,10.98,1.57,2.23-.1,4.24.38,6.37.88l1.21.29c.91.21,1.94.32,3.05.32h.1c1.93-.01,3.52-.34,4.11-.48,1.38-.32,2.75-.31,4.2-.29h.08c.5,0,.99,0,1.49,0,1.78-.04,2.99-.78,3.97-1.38l.1-.06c.32-.2.63-.38.93-.54.41-.21.81-.4,1.22-.6l.16-.08c.88-.42,1.74-.84,2.66-1.43,1.44-.92,2.58-2.24,3.78-3.64.28-.33.57-.66.86-.99.21-.24.43-.48.66-.73,1.38-1.5,3.09-3.37,3.48-5.4.05-.24.04-.5.04-.75,0-.27-.01-.55.06-.7.22-.49.63-1.06,1.06-1.66,1.19-1.66,2.67-3.72,1.03-5.6-.53-.61-1.12-.87-1.75-.75Z"/>
  <path d="M118.34,124c-.74.15-1.57.13-2.37.11-.61-.02-1.25-.03-1.85.03l-.38.04c-1.49.14-3.02.28-4.56.52l-.99.16c-2.01.32-3.81.55-5.47,0-2.67-.88-3.98-1.17-6.79-1.64-1.65-.27-4.17-1.03-6.28-1.89-3.43-1.4-5.71-5.58-6.33-6.83-.5-1.01-1.05-2.01-1.58-2.98-.62-1.14-1.26-2.31-1.81-3.48l-.19-.38c-.57-1.18-1.21-2.52-2.6-3.08-.8-.32-1.45-.3-1.93.05-.77.57-.8,1.8-.75,2.49.15,1.93,1.36,3.76,2.49,5.32.81,1.11,1.51,2.43,2.15,3.68,2.36,4.62,5.17,7.49,8.84,9.03,2.47,1.04,5.49,1.95,7.68,2.33,2.57.44,3.6.67,5.95,1.45,1.18.39,2.4.58,3.72.58.19,0,.38,0,.57-.01,1.14-.05,2.24-.22,3.18-.38l.94-.16c.85-.14,2.09-.2,3.29-.25.9-.04,1.74-.08,2.39-.15.65-.07,1.13-.09,1.6-.11.61-.02,1.18-.04,2.04-.17l.35-.05c.91-.13,2.05-.28,2.68-1.16.48-.66.47-2.04-.19-2.6-.99-.82-2.62-.71-3.81-.47Z"/>
  <path d="M127.69,113.56c-.07-.61-.11-1.22-.16-1.83-.04-.55-.08-1.1-.14-1.67-.15-1.41-.41-3.49-1.06-5.2-.12-.31-.24-.61-.36-.9-.42-1.03-.78-1.93-.83-2.91-.03-.44-.03-.88-.01-1.44.02-.56-.04-1.11-.11-1.7-.05-.41-.09-.86-.12-1.35-.19-3.6-2.8-7.26-5.58-10.68l-.24-.31c-1.87-2.38-4-4.41-6.72-6.41l-.38-.25c-.76-.5-1.47-.97-3.37-1.24-.26-.04-.32-.07-.36-.1-.15-.09-.27-.13-.66-.15-.96-.05-1.8-.09-2.45-.31-.41-.14-.85-.36-1.32-.59l-.21-.1c-.67-.33-1.4-.66-2.19-.9-2.21-.67-4.39-.98-6.74-.94-.36,0-.72-.01-1.07-.03-1.13-.06-2.28-.11-3.29.62-.71-.49-1.43-.87-2.26-1.27-.53-.26-3.38-1.3-3.47-1.91-.11-.76.19-.44.46-.58.95-.48,1.95-.86,2.93-1.26.55-.22.88-.52,1.33-.8.41-.25.9-.2,1.35-.31.55-.14,1.03-.39,1.49-.73.47-.35.81-.8,1.19-1.26,1.16-1.42,3.4-1.67,3.81-3.71.37-1.87-2.21-5.44-4.19-5.88-5.44-1.19-12.15,4.04-15.5,7.91.25-1.84-.18-3.55.07-5.41.14-1.09.65-2.1.8-3.15.25-1.64.41-7.36-.42-8.64-1.67-2.55-8.47.68-9.74,2.92-2.41,4.23.58,8.1.07,12.47-2.84-3.46-8.6-8.66-13.46-6.83-3.56,1.34-4.25,5.52-3.04,8.77.54,1.46,1.05,3.22,2.18,4.32.78.76,1.56,1.53,2.35,2.28.76.73,1.68,1.04,2.63,1.46.34.15,2.55.78,1.43,1.37-1.27.66-2.7.78-4.02,1.26-1.17.43-2.28,1.02-3.3,1.73-2.51,1.74-4.73,4.36-5.4,7.4-.27,1.24-.47,3.29.37,4.37.7.91,2.58,2.16,3.73,2.16.62,0,1.34-.35,1.91-.48,1.04-.24,2.26-.19,3.16-.74.34-.21.58-.58.92-.82,1.17-.84,2.55-1.08,3.78-1.71,1.63-.82,3.22-1.9,4.78-2.85.9-.55,1.71-1.33,2.65-1.81.08,3.55-.86,7.13-1.03,10.6-.09,1.9-.11,4.46.79,6.15.24.44.84,1.89,1.19,2.19,1.31,1.09,3.64.18,4.98-.4,1.94-.85,2.94-1.69,3.5-3.8,1.07-4.02.86-6.19.85-10.17,0-.41-.21-.81.29-1.07.34-.17,1.35.75,1.58.92.85.62,1.69,1.27,2.58,1.84,2.64,1.68,4.86.24,7.64.17,1.2-.03,2.61.16,3.75-.18.62-.19,1.38-.72,1.84-1.3.14-.18.26-.37.34-.55.08-.18.04-.37.11-.54.14-.31.36-.43.48-.68.92-1.85-.32-4.34-1.38-5.94-.57-.86-1.27-1.58-2.03-2.27.19-.02.37-.05.54-.05,1.9-.04,3.56.16,4.86.58.44.14.93.39,1.4.63l.38.2c.52.28,1.11.59,1.75.87,1.3.55,2.56.76,3.72.9v.03c.1.16.27.21.44.24.95.18,1.39.45,2.16.96l.07.05c.06.04.11.07.18.11,2.22,1.3,3.96,3.3,5.7,5.4.11.13.17.2.28.34.48.61,1,1.2,1.55,1.83,1.76,2.01,3.57,4.08,3.87,6.55.04.31.09.61.13.89.09.55.17,1.03.14,1.54-.02.41-.04.96-.03,1.57.04,1.39.46,2.52.91,3.71.12.32.24.64.35.97.37,1.09.47,2.35.55,3.46l.04.52c.14,1.69.03,3.47-.08,5.18-.05.79-.1,1.58-.12,2.35,0,.18,0,.36-.01.56,0,.52-.02,1.11-.09,1.56-.04.24-.09.47-.13.7-.15.72-.29,1.4-.11,2.24.19.89.8,1.56,1.54,1.72.11.02.23.04.34.04.57,0,1.12-.31,1.55-.88.11-.15.2-.3.28-.45.27-.55.32-1.08.36-1.65.01-.15.03-.31.04-.48.05-.41.15-.81.26-1.24.12-.45.24-.92.28-1.4.04-.44,0-.89-.05-1.31-.02-.17-.04-.35-.05-.52-.03-.39.06-.76.14-1.15.1-.45.2-.91.14-1.43ZM69.14,79.49c-.48.52-1.66.78-2.37,1.05-.05.02-.1.04-.14.06-.89.38-1.4,1.24-2.22,1.68-.74.4-1.56.7-2.34,1.02-1.24.52-2.66,1.32-4.01,1.51-1.24.17-2.8-.15-4.1.24l-.52-.39c-.32-2.96,1.4-4.13,3.84-5.06,1.09-.41,3.16-1.05,4.29-1.24,1.04-.17,1.64.26,2.62.35,1.05.1,2.09-.15,3.12-.3.61-.09,2.81.01,1.82,1.08ZM69.05,71.87c-.29.55-.25,1.68-.53,1.84-.94.52-4-2.59-4.99-3.19-2.34-1.42-4.05-1.15-5.73-3.87-.93-1.51-.79-2.73-1.2-4.33-.16-.63-1.36-1.89-.18-2.18.49-.12,1.96.02,2.51.14,1.47.33,9.12,6.25,10.13,7.55.36.46,1.07,2.37.99,2.81-.04.2-.76.76-1,1.22ZM70.92,52.31c.28-.69,1.51-1.51,2.21-1.67.26-.06.5-.03.71.05.71.29,1.15,1.22,1.23,1.84.16,1.2.29,2.14-.08,3.31-.25.78-.25,1.6-.37,2.39-.09.57-.29,1.11-.44,1.67-.4,1.51.16,2.8.56,4.28.34,1.27,1.1,2.99-.03,4.05-.66.61-1.21.22-1.33-.59-.05-.36,0-.69-.08-1.05-.11-.51-.22-1.01-.31-1.52-.12-.64-.37-1.23-.57-1.84-.24-.73-.36-1.49-.54-2.23-.24-1.01-.31-2.01-.24-3.03.07-1.01.16-1.98-.15-2.95-.27-.87-.96-1.78-.57-2.72ZM75.77,93.29c-.16,1.11-.45,2.23-.96,3.23-.24.47-.55,1.01-.97,1.34-.24.19-.75.7-1.05.69-1.02-.01-1.13-1.89-1.26-2.62-.31-1.7-.79-3.41-.66-5.16.09-1.15.82-2.47,1.03-3.52.54-2.69.08-5.36,1.3-7.92.15-.31.39-.56.71-.36.06.04.11.08.15.13.47.54.16,1.76.23,2.39.16,1.32.36,2.61.64,3.91.56,2.58,1.21,5.21.83,7.88ZM84.32,62.88c1.14-.81,4.65-2.38,5.97-2.41.91-.02,2.1,1.03,1.96,1.92-.07.43-.47.69-.71,1.02-.27.39-.4.87-.68,1.25-.54.76-1.47.94-2.3,1.23-.93.32-1.68.94-2.58,1.36-.63.29-1.29.51-1.94.75-.49.18-1.06.39-1.52.65-.09.05-.19.17-.29.19-.65.15-.8-.52-.93-.98-.12-.43-.27-.93-.24-1.38.05-.73,2.51-3.07,3.26-3.6ZM88.81,85.73c-1.68-.89-3.55-1.59-5.07-2.75-.91-.7-2.33-2.33-3.01-3.28-.38-.53-2.38-3.65-2.03-4,2.48-.79,3.73,1.13,5.58,2.25.98.6,2.18,1.05,3.06,1.63,1.18.77,2.25,1.78,3.31,2.7.51.44.85.94,1.41,1.31.49.33.86.58.86,1.24.02,1.94-3.07,1.47-4.11.92Z"/>
</svg>