<?xml version="1.0" encoding="utf-8"?>
<!-- Generator: Adobe Illustrator 24.0.0, SVG Export Plug-In . SVG Version: 6.00 Build 0)  -->
<svg version="1.1" id="Layer_1" xmlns="http://www.w3.org/2000/svg" xmlns:xlink="http://www.w3.org/1999/xlink" x="0px" y="0px"
	 viewBox="0 0 100 100" style="enable-background:new 0 0 100 100;" xml:space="preserve">
<style type="text/css">
	.st0{fill:#64FFD9;}
	.st1{fill:#E6F1FF;}
</style>
<g>
	<path class="st0" d="M22.1,88.6c-5.5,0-9.9-1.6-13.5-4.7c-3.6-3.2-5.3-7.6-5.3-13.2c0-5.6,2-10.3,6.2-14.3c4.2-3.9,11-7,20.5-9.3
		l16.8-4.2V29.5c0-4.3-1.7-8-5-10.9c-3.4-2.9-7.2-4.3-11.3-4.3c-4.6,0-7.7,1.1-9.6,3.3c-1.9,2.2-2.7,5.2-2.7,8.9v5.7l-0.9,0.9H9.9
		c-1.7,0-2.9-0.3-3.6-0.7c-0.7-0.6-1-1.7-1-3.7c0-2.4,0.7-4.9,2.3-7.5c1.4-2.6,3.7-4.7,6.7-6.6c3.2-2,6.5-3.9,9.9-5.2
		c3.4-1.4,6.7-2,10.3-2c4.3,0,8.3,0.6,11.9,1.9c3.6,1.1,6.5,3.2,8.6,5.9c2.2,2.7,3.3,6.5,3.3,11v50.9c0.9,0.9,2,1.6,3.4,2
		c1.4,0.4,3.2,0.7,5.3,0.7h7.6l0.3,0.6v0.3c-1.1,2-2.9,3.7-5.3,5.5c-2.3,1.7-5.3,2.4-8.9,2.4c-3.7,0-6.6-1-8.8-2.9
		c-2.2-2-3.7-4.4-4.4-7.5h-0.9c-3,3-6.6,5.5-10.9,7.5C31.6,87.7,27,88.6,22.1,88.6z M15,67.5c0,4,1.1,7,3.6,9c2.4,2,5.7,3,10.2,3
		c2.9,0,5.7-0.3,8.8-1s6-1.9,9.3-3.4V48c-9.3,1.9-16.2,3.7-20.8,5.7s-7.5,4-9,6.3C15.7,62.2,15,64.6,15,67.5z"/>
</g>
<g>
	<path class="st1" d="M20.1,90.6c-5.5,0-9.9-1.6-13.5-4.7c-3.6-3.2-5.3-7.6-5.3-13.2c0-5.6,2-10.3,6.2-14.3c4.2-3.9,11-7,20.5-9.3
		l16.8-4.2V31.5c0-4.3-1.7-8-5-10.9c-3.4-2.9-7.2-4.3-11.3-4.3c-4.6,0-7.7,1.1-9.6,3.3c-1.9,2.2-2.7,5.2-2.7,8.9v5.7l-0.9,0.9H7.9
		c-1.7,0-2.9-0.3-3.6-0.7c-0.7-0.6-1-1.7-1-3.7c0-2.4,0.7-4.9,2.3-7.5c1.4-2.6,3.7-4.7,6.7-6.6c3.2-2,6.5-3.9,9.9-5.2
		c3.4-1.4,6.7-2,10.3-2c4.3,0,8.3,0.6,11.9,1.9c3.6,1.1,6.5,3.2,8.6,5.9c2.2,2.7,3.3,6.5,3.3,11v50.9c0.9,0.9,2,1.6,3.4,2
		c1.4,0.4,3.2,0.7,5.3,0.7h7.6l0.3,0.6v0.3c-1.1,2-2.9,3.7-5.3,5.5c-2.3,1.7-5.3,2.4-8.9,2.4c-3.7,0-6.6-1-8.8-2.9
		c-2.2-2-3.7-4.4-4.4-7.5h-0.9c-3,3-6.6,5.5-10.9,7.5C29.6,89.7,25,90.6,20.1,90.6z M13,69.5c0,4,1.1,7,3.6,9c2.4,2,5.7,3,10.2,3
		c2.9,0,5.7-0.3,8.8-1s6-1.9,9.3-3.4V50c-9.3,1.9-16.2,3.7-20.8,5.7s-7.5,4-9,6.3C13.7,64.2,13,66.6,13,69.5z"/>
</g>
<circle class="st0" cx="89.3" cy="80.8" r="8.8"/>
<circle class="st1" cx="90.3" cy="81.8" r="8.8"/>
</svg>
